<svg aria-hidden="true" style="position: absolute; width: 0; height: 0; overflow: hidden;" version="1.1" xmlns="http://www.w3.org/2000/svg" xmlns:xlink="http://www.w3.org/1999/xlink">
<defs>
<symbol id="icon-window" viewBox="0 0 32 32">
<path d="M28 4h-24c-1.105 0-2 0.896-2 2v20c0 1.104 0.895 2 2 2h24c1.104 0 2-0.896 2-2v-20c0-1.104-0.896-2-2-2zM11.562 5.5c0.552 0 0.999 0.448 0.999 1s-0.447 1-0.999 1c-0.553 0-1-0.448-1-1s0.448-1 1-1zM8.5 5.5c0.552 0 1 0.448 1 1s-0.448 1-1 1c-0.553 0-1-0.448-1-1s0.447-1 1-1zM5.499 5.5c0.553 0 1 0.448 1 1s-0.447 1-1 1c-0.552 0-0.999-0.448-0.999-1s0.447-1 0.999-1zM28 26h-24v-16.979h24v16.979zM28 7.021h-14v-1h14v1z"></path>
</symbol>
<symbol id="icon-chart" viewBox="0 0 32 32">
<path d="M3.987 4h-0.987v24h26v-0.963l-24.996-0.050-0.017-22.987zM11 5c0-0.553-0.448-1-1-1h-3c-0.553 0-1 0.447-1 1v20h5v-20zM17 11c0-0.553-0.448-1-1-1h-3c-0.553 0-1 0.447-1 1v14h5v-14zM23 17c0-0.553-0.448-1-1-1h-3c-0.553 0-1 0.447-1 1v8h5v-8zM28 22h-3c-0.553 0-1 0.447-1 1v2h5v-2c0-0.553-0.448-1-1-1z"></path>
</symbol>
<symbol id="icon-phone" viewBox="0 0 32 32">
<path d="M15.331 19.76c-0.026-0.018-3.034-5.075-3.044-5.14-0.622-1.359-1.124-2.749-0.078-3.366l-4.341-7.32c-1.125 0.841-4.307 5.405 1.649 15.748 6.274 10.9 12.245 10.447 13.442 9.709l-4.23-7.145c-1 0.588-1.842-0.381-3.398-2.486zM25.862 26.617l0.001-0.006c0 0-3.303-5.566-3.305-5.568-0.262-0.441-0.825-0.58-1.264-0.324l-2.024 1.197 4.242 7.166c0 0 2.024-1.191 2.023-1.195h0.004c0.465-0.276 0.572-0.846 0.323-1.27zM14.786 9.736v-0.004c0.465-0.275 0.574-0.845 0.325-1.265l0.002-0.006c0 0-3.398-5.729-3.4-5.73-0.261-0.443-0.826-0.58-1.263-0.324l-2.024 1.197 4.336 7.324c0 0 2.023-1.189 2.024-1.192z"></path>
</symbol>
<symbol id="icon-mail" viewBox="0 0 20 20">
<path d="M1.574 5.286c0.488 0.262 7.248 3.894 7.5 4.029s0.578 0.199 0.906 0.199c0.328 0 0.654-0.064 0.906-0.199s7.012-3.767 7.5-4.029c0.489-0.263 0.951-1.286 0.054-1.286h-16.919c-0.897 0-0.435 1.023 0.053 1.286zM18.613 7.489c-0.555 0.289-7.387 3.849-7.727 4.027s-0.578 0.199-0.906 0.199-0.566-0.021-0.906-0.199-7.133-3.739-7.688-4.028c-0.39-0.204-0.386 0.035-0.386 0.219s0 7.293 0 7.293c0 0.42 0.566 1 1 1h16c0.434 0 1-0.58 1-1 0 0 0-7.108 0-7.292s0.004-0.423-0.387-0.219z"></path>
</symbol>
<symbol id="icon-network" viewBox="0 0 20 20">
<path d="M5.274 6.915c0.2 0 0.394 0.029 0.576 0.086 0.69-0.773 1.455-1.477 2.283-2.1-0.035-0.146-0.054-0.299-0.054-0.455 0-0.217 0.036-0.426 0.102-0.621-0.929-0.664-1.937-1.223-3.011-1.654-1.005 0.621-1.882 1.431-2.582 2.381 0.519 0.92 1.136 1.777 1.838 2.557 0.256-0.124 0.543-0.194 0.848-0.194zM3.316 8.872c0-0.275 0.058-0.537 0.159-0.773-0.628-0.692-1.197-1.436-1.695-2.229-0.625 1.242-0.98 2.645-0.98 4.131 0 1.719 0.474 3.328 1.295 4.705 0.294-1.654 0.851-3.219 1.62-4.652-0.25-0.328-0.399-0.739-0.399-1.182zM10.036 2.489c0.517 0 0.985 0.201 1.336 0.529 1.021-0.439 2.096-0.777 3.215-0.992-1.351-0.779-2.917-1.226-4.587-1.226-1.139 0-2.229 0.209-3.236 0.588 0.799 0.395 1.561 0.855 2.277 1.375 0.292-0.174 0.631-0.274 0.995-0.274zM12.962 11.708c0.122-0.254 0.295-0.479 0.509-0.656-0.578-1.777-1.493-3.404-2.672-4.803-0.234 0.1-0.492 0.154-0.764 0.154-0.425 0-0.816-0.137-1.137-0.365-0.71 0.539-1.367 1.143-1.964 1.803 0.188 0.299 0.297 0.652 0.297 1.031 0 0.203-0.031 0.4-0.090 0.586 1.717 1.146 3.694 1.934 5.821 2.25zM15.501 14.351c0.026 0.371 0.041 0.744 0.041 1.121 0 0.664-0.042 1.318-0.122 1.961 1.56-1.139 2.748-2.758 3.347-4.639-0.71 0.172-1.438 0.295-2.181 0.365-0.173 0.537-0.572 0.969-1.085 1.192zM12.504 13.024c-2.272-0.377-4.377-1.244-6.21-2.484-0.298 0.182-0.647 0.289-1.021 0.289-0.139 0-0.272-0.014-0.402-0.041-0.877 1.662-1.438 3.517-1.599 5.484 0.876 0.94 1.944 1.697 3.145 2.205 1.492-2.293 3.576-4.189 6.087-5.453zM16.176 3.181c-1.475 0.143-2.883 0.514-4.193 1.068 0.006 0.066 0.010 0.131 0.010 0.197 0 0.309-0.074 0.6-0.201 0.859 1.311 1.539 2.327 3.33 2.969 5.291 0.797 0.016 1.477 0.502 1.77 1.195 0.886-0.090 1.748-0.26 2.578-0.504 0.060-0.42 0.092-0.85 0.092-1.287-0.001-2.704-1.167-5.136-3.025-6.819zM13.489 14.069c-2.344 1.098-4.304 2.789-5.723 4.856 0.715 0.179 1.463 0.275 2.234 0.275 1.387 0 2.702-0.309 3.882-0.859 0.19-0.928 0.29-1.887 0.29-2.869 0-0.355-0.016-0.707-0.043-1.055-0.236-0.076-0.453-0.193-0.64-0.348z"></path>
</symbol>
<symbol id="icon-quill" viewBox="0 0 32 32">
<path d="M0 32c4-12 14.469-32 32-32-8.219 6.594-12 22-18 22s-6 0-6 0l-6 10h-2z"></path>
</symbol>
<symbol id="icon-credit-card" viewBox="0 0 32 32">
<path d="M29 4h-26c-1.65 0-3 1.35-3 3v18c0 1.65 1.35 3 3 3h26c1.65 0 3-1.35 3-3v-18c0-1.65-1.35-3-3-3zM3 6h26c0.542 0 1 0.458 1 1v3h-28v-3c0-0.542 0.458-1 1-1zM29 26h-26c-0.542 0-1-0.458-1-1v-9h28v9c0 0.542-0.458 1-1 1zM4 20h2v4h-2zM8 20h2v4h-2zM12 20h2v4h-2z"></path>
</symbol>
<symbol id="icon-calculator" viewBox="0 0 32 32">
<path d="M12 2h-10c-1.1 0-2 0.9-2 2v10c0 1.1 0.9 2 2 2h10c1.1 0 2-0.9 2-2v-10c0-1.1-0.9-2-2-2zM12 10h-10v-2h10v2zM28 2h-10c-1.1 0-2 0.9-2 2v26c0 1.1 0.9 2 2 2h10c1.1 0 2-0.9 2-2v-26c0-1.1-0.9-2-2-2zM28 20h-10v-2h10v2zM28 14h-10v-2h10v2zM12 18h-10c-1.1 0-2 0.9-2 2v10c0 1.1 0.9 2 2 2h10c1.1 0 2-0.9 2-2v-10c0-1.1-0.9-2-2-2zM12 26h-4v4h-2v-4h-4v-2h4v-4h2v4h4v2z"></path>
</symbol>
<symbol id="icon-list-numbered" viewBox="0 0 32 32">
<path d="M12 26h20v4h-20zM12 14h20v4h-20zM12 2h20v4h-20zM6 0v8h-2v-6h-2v-2zM4 16.438v1.563h4v2h-6v-4.563l4-1.875v-1.563h-4v-2h6v4.563zM8 22v10h-6v-2h4v-2h-4v-2h4v-2h-4v-2z"></path>
</symbol>
<symbol id="icon-facebook2" viewBox="0 0 32 32">
<path d="M29 0h-26c-1.65 0-3 1.35-3 3v26c0 1.65 1.35 3 3 3h13v-14h-4v-4h4v-2c0-3.306 2.694-6 6-6h4v4h-4c-1.1 0-2 0.9-2 2v2h6l-1 4h-5v14h9c1.65 0 3-1.35 3-3v-26c0-1.65-1.35-3-3-3z"></path>
</symbol>
<symbol id="icon-telegram" viewBox="0 0 32 32">
<path d="M16 0c-8.838 0-16 7.162-16 16s7.162 16 16 16 16-7.163 16-16-7.163-16-16-16zM23.863 10.969l-2.625 12.369c-0.181 0.881-0.712 1.087-1.45 0.681l-4-2.956-1.919 1.869c-0.225 0.219-0.4 0.4-0.8 0.4-0.519 0-0.431-0.194-0.606-0.688l-1.363-4.475-3.956-1.231c-0.856-0.262-0.862-0.85 0.194-1.269l15.412-5.95c0.7-0.319 1.381 0.169 1.113 1.25z"></path>
</symbol>
</defs>
</svg>
